<svg width="512" height="512" viewBox="0 0 512 512" fill="none" xmlns="http://www.w3.org/2000/svg">
<path d="M206.933 241.067C198.4 232.533 185.6 232.533 177.067 241.067C168.533 249.6 168.533 262.4 177.067 270.933L241.067 334.933C245.333 339.2 249.6 341.333 256 341.333C262.4 341.333 266.667 339.2 270.933 334.933L420.267 164.267C426.667 153.6 426.667 140.8 416 134.4C407.467 128 394.667 128 388.267 136.533L256 288L206.933 241.067Z" fill="#02BC7D"/>
<path d="M448 234.667C435.2 234.667 426.667 243.2 426.667 256C426.667 349.867 349.867 426.667 256 426.667C162.133 426.667 85.3333 349.867 85.3333 256C85.3333 211.2 102.4 168.533 134.4 136.533C166.4 102.4 209.067 85.3333 256 85.3333C268.8 85.3333 283.733 87.4667 296.533 89.6C307.2 93.8667 320 87.4667 324.267 74.6667C328.533 61.8667 320 53.3333 309.333 49.0667H307.2C290.133 44.8 273.067 42.6667 256 42.6667C138.667 42.6667 42.6667 138.667 42.6667 258.133C42.6667 313.6 66.1333 369.067 104.533 407.467C145.067 448 198.4 469.333 253.867 469.333C371.2 469.333 467.2 373.333 467.2 256C469.333 243.2 458.667 234.667 448 234.667Z" fill="#02BC7D"/>
</svg>
